<svg width="256" height="256" viewBox="0 0 256 256" fill="none" xmlns="http://www.w3.org/2000/svg">
<rect width="256" height="256" fill="#00A767"/>
<g clip-path="url(#clip0_15_8)">
<mask id="mask0_15_8" style="mask-type:luminance" maskUnits="userSpaceOnUse" x="28" y="73" width="201" height="110">
<path d="M229 73H28V183H229V73Z" fill="white"/>
<path d="M53.0311 175C58.2844 175 62.5429 170.747 62.5429 165.5C62.5429 160.253 58.2844 156 53.0311 156C47.7779 156 43.5193 160.253 43.5193 165.5C43.5193 170.747 47.7779 175 53.0311 175Z" fill="black"/>
</mask>
<g mask="url(#mask0_15_8)">
<path d="M221.24 99L210.727 105L195.208 109.25L177.937 106.25L174.432 113.25L177.937 115.75L173.681 117L110.352 73L90.5779 80.5L94.0822 81.75L71.3039 93.25L76.3101 94.5L52.5305 109.5L29.5019 183H60.5405L95.3338 153.5L89.8269 162L101.091 182.75H134.132L125.621 165.25L202.968 150.25L229.25 107.75L221.24 99ZM193.456 136.75C190.452 136.75 187.699 135.25 186.197 132.75L131.128 148.75C131.128 154.5 126.372 159.25 120.615 159.25C114.858 159.25 110.102 154.5 110.102 148.75C110.102 145 112.105 141.5 115.359 139.75L109.602 112.25C109.351 112.25 109.101 112.25 108.6 112.25C105.597 112.25 102.843 111.25 100.59 109.5L62.0424 157C63.7945 159 64.7958 161.5 64.7958 164C64.7958 170 60.0399 175 53.7821 175C47.7746 175 42.7684 170.25 42.7684 164C42.7684 158 47.5243 153 53.7821 153C55.284 153 56.5355 153.25 58.0374 153.75L97.3363 105.5C96.0847 103.5 95.3338 101 95.3338 98.5C95.3338 91 101.341 85 108.851 85C116.36 85 122.367 91 122.367 98.5C122.367 104 119.113 108.5 114.608 110.75L120.365 138.25C120.615 138.25 120.615 138.25 120.866 138.25C124.871 138.25 128.375 140.5 130.127 143.75L184.695 128C184.695 123.25 188.7 119.5 193.456 119.5C198.212 119.5 202.217 123.5 202.217 128.25C202.217 133 198.212 136.75 193.456 136.75Z" fill="white"/>
</g>
<path d="M48.5255 113.5L34.5081 122L28 136H40.5156L48.5255 113.5Z" fill="white"/>
<path d="M177.436 163.75C177.436 163 177.436 160 177.436 159V158.5L142.392 168.5L149.151 176.25L154.658 182.75H177.936L177.436 163.75Z" fill="white"/>
</g>
<defs>
<clipPath id="clip0_15_8">
<rect width="201" height="110" fill="white" transform="translate(28 73)"/>
</clipPath>
</defs>
</svg>
