<svg width="48" height="48" viewBox="0 0 48 48" fill="none" xmlns="http://www.w3.org/2000/svg">
<g clip-path="url(#clip0_50_51)">
<path d="M27.75 27.75C29.8211 27.75 31.5 26.0711 31.5 24C31.5 21.9289 29.8211 20.25 27.75 20.25C25.6789 20.25 24 21.9289 24 24C24 26.0711 25.6789 27.75 27.75 27.75Z" fill="#006BB3"/>
<path fill-rule="evenodd" clip-rule="evenodd" d="M15 9C11.6863 9 9 11.6863 9 15V33C9 36.3137 11.6863 39 15 39H33C36.3137 39 39 36.3137 39 33V15C39 11.6863 36.3137 9 33 9H15ZM23.9998 32.9998C28.9703 32.9998 32.9998 28.9703 32.9998 23.9998C32.9998 19.0292 28.9703 14.9998 23.9998 14.9998C19.0292 14.9998 14.9998 19.0292 14.9998 23.9998C14.9998 28.9703 19.0292 32.9998 23.9998 32.9998Z" fill="#006BB3"/>
<path fill-rule="evenodd" clip-rule="evenodd" d="M15 6C10.0294 6 6 10.0294 6 15V33C6 37.9705 10.0294 42 15 42H33C37.9705 42 42 37.9705 42 33V15C42 10.0294 37.9705 6 33 6H15ZM15 7.5C10.8579 7.5 7.5 10.8579 7.5 15V33C7.5 37.1421 10.8579 40.5 15 40.5H33C37.1421 40.5 40.5 37.1421 40.5 33V15C40.5 10.8579 37.1421 7.5 33 7.5H15Z" fill="#006BB3"/>
</g>
<defs>
<clipPath id="clip0_50_51">
<rect width="36" height="36" fill="white" transform="translate(6 6)"/>
</clipPath>
</defs>
</svg>
