<svg width="256" height="256" viewBox="0 0 256 256" fill="none" xmlns="http://www.w3.org/2000/svg">
<rect width="256" height="256" fill="#0098AB"/>
<path d="M224.918 87.1293C220.615 82.6644 213.343 82.7716 208.943 87.1472L157.696 138.404C153.371 142.726 153.371 149.727 157.696 154.032L183.244 179.589C156.017 207.486 111.988 208.985 82.9649 184.072L147.508 119.527C149.423 117.616 149.423 114.49 147.508 112.579L84.0944 49.1598C82.3625 47.4275 79.6302 47.2309 77.6616 48.7133L73.391 51.9102C69.7873 54.6248 66.3342 57.6074 63.1608 60.7865C45.1209 78.8246 35.192 102.81 35.192 128.314C35.192 148.245 41.2591 167.266 52.5112 183.214L30.674 205.057C26.2958 209.432 26.1883 216.719 30.6525 221.023C34.9769 225.185 41.8722 225.148 46.1428 220.88L67.2809 199.734C84.783 215.309 107.093 223.827 130.706 223.827C156.211 223.827 180.2 213.897 198.229 195.858C201.413 192.68 204.393 189.251 207.104 185.625L210.309 181.356C211.772 179.392 211.589 176.66 209.857 174.927L181.125 146.191L224.756 102.56C229.027 98.3453 229.081 91.4692 224.918 87.1293ZM79.4473 75.8242L119.701 116.08L68.4857 167.301C50.6072 138.726 54.2431 100.417 79.4473 75.8242Z" fill="white"/>
<path d="M145.884 76.1374L172.089 49.9374C176.414 45.6153 176.414 38.6143 172.089 34.3101C167.765 29.9881 160.762 29.9881 156.459 34.3101L130.243 60.4924C125.919 64.8144 125.919 71.8153 130.243 76.1195C134.568 80.4237 141.56 80.4594 145.884 76.1374Z" fill="white"/>
</svg>
