<svg width="256" height="256" viewBox="0 0 256 256" fill="none" xmlns="http://www.w3.org/2000/svg">
<g clip-path="url(#clip0_15_284)">
<g clip-path="url(#clip1_15_284)">
<path d="M121.6 256C51.2 256 0 217.364 0 134.4C0 25.6 70.4 0 134.4 0C204.94 0 256 38.4 256 121.6C256 217.6 198.54 256 121.6 256Z" fill="white"/>
</g>
<path fill-rule="evenodd" clip-rule="evenodd" d="M170.734 23.4062C138.371 23.4062 117.124 39.4893 122.485 71.6514C154.651 71.6514 170.734 55.7696 170.734 23.4062Z" fill="#07BE54"/>
<path fill-rule="evenodd" clip-rule="evenodd" d="M109.052 143.802L109.101 141.049C109.422 122.912 120.263 114.791 130.874 114.791C136.194 114.791 142.413 117.695 142.413 125.866C142.413 131.276 140.142 135.536 135.664 138.531C130.668 141.879 122.67 143.638 111.903 143.765L109.052 143.802ZM134.382 83.3845C110.379 83.3845 90.3724 90.9146 76.5282 105.157C64.1424 117.892 57.323 135.409 57.323 154.479C57.323 174.818 62.8155 190.811 73.6485 202.009C85.5701 214.342 103.843 220.594 127.949 220.594C158.086 220.594 179.628 210.722 185.565 207.674L172.801 178.014C161.085 184.295 148.637 187.606 136.72 187.606C121.75 187.606 112.125 181.436 110.305 170.665L109.783 167.583L113.016 167.563C136.034 167.415 153.062 164.33 165.053 158.131C171.774 154.659 176.925 150.124 180.368 144.66C184.102 138.728 186 131.432 186 122.982C186 109.783 181.247 99.6894 171.872 92.9686C163.007 86.6094 150.387 83.3845 134.382 83.3845Z" fill="#FF5A5F"/>
</g>
<defs>
<clipPath id="clip0_15_284">
<rect width="256" height="256" fill="white"/>
</clipPath>
<clipPath id="clip1_15_284">
<rect width="256" height="256" fill="white"/>
</clipPath>
</defs>
</svg>
