<svg width="48" height="48" viewBox="0 0 48 48" fill="none" xmlns="http://www.w3.org/2000/svg">
<path d="M44.1218 13.8914C43.6378 12.0832 42.2167 10.6622 40.4085 10.1782C37.1345 9.29999 23.9999 9.29999 23.9999 9.29999C23.9999 9.29999 10.8655 9.29999 7.59136 10.1782C5.78318 10.6622 4.3622 12.0832 3.87817 13.8914C3 17.1655 3 24.0007 3 24.0007C3 24.0007 3 30.8359 3.87817 34.11C4.3622 35.9182 5.78318 37.3392 7.59136 37.8231C10.8655 38.7014 23.9999 38.7014 23.9999 38.7014C23.9999 38.7014 37.1345 38.7014 40.4085 37.8231C42.2167 37.3392 43.6378 35.9182 44.1218 34.11C45 30.8359 45 24.0007 45 24.0007C45 24.0007 44.9965 17.1655 44.1218 13.8914Z" fill="#FF0000"/>
<path d="M19.796 30.3005L30.7074 24.0012L19.796 17.7019V30.3005Z" fill="white"/>
</svg>
